Coordinates
version=1
nRows=14
nColumns=40
inDegrees=yes

Units are S.I. units (second, meters, Newtons, ...)
Angles are in degrees.

endheader
time	pelvis_tilt	pelvis_list	pelvis_rotation	pelvis_tx	pelvis_ty	pelvis_tz	hip_flexion_r	hip_adduction_r	hip_rotation_r	knee_angle_r	knee_angle_r_beta	ankle_angle_r	subtalar_angle_r	mtp_angle_r	hip_flexion_l	hip_adduction_l	hip_rotation_l	knee_angle_l	knee_angle_l_beta	ankle_angle_l	subtalar_angle_l	mtp_angle_l	lumbar_extension	lumbar_bending	lumbar_rotation	arm_flex_r	arm_add_r	arm_rot_r	elbow_flex_r	pro_sup_r	wrist_flex_r	wrist_dev_r	arm_flex_l	arm_add_l	arm_rot_l	elbow_flex_l	pro_sup_l	wrist_flex_l	wrist_dev_l
     22.79642857	     -4.52646160	     -4.46690185	      6.61848361	      1.09294347	      0.93319264	      0.48174391	     10.49732679	      2.01539226	    -16.01474571	     14.38058896	     14.38058896	     10.41493747	      2.09677566	     -2.82635107	     36.93348692	     -9.75925737	      3.18944174	     51.36405486	     51.36405486	      7.17283734	    -17.75217268	      9.13740983	    -11.62180022	      4.35635946	      3.28995913	     22.77777937	    -25.31790923	     -3.46030014	     87.82644127	     44.76510153	      0.00000000	      0.00000000	      0.50717553	    -10.62405248	     -7.87262015	     31.47442590	     46.86594492	      0.00000000	      0.00000000
     22.81035714	     -4.64056862	     -4.36204569	      6.92026423	      1.09170957	      0.93326459	      0.48156278	     10.11421622	      1.93812590	    -16.24467798	     14.05645909	     14.05645909	     10.58764901	      2.21749168	     -2.86824289	     36.97323032	     -9.27336773	      2.91459195	     47.12758067	     47.12758067	      7.36812296	    -17.31367122	      9.45153054	    -11.62570385	      4.33739642	      3.43513692	     24.15621951	    -24.91233116	     -3.12205712	     88.02125871	     44.75883767	      0.00000000	      0.00000000	      0.28261315	    -10.52189548	     -7.95267517	     31.77763168	     46.86657385	      0.00000000	      0.00000000
     22.82428571	     -4.78121577	     -4.35712924	      7.22599193	      1.09051597	      0.93300680	      0.48120011	      9.79385354	      1.90016348	    -16.78277970	     13.80761492	     13.80761492	     10.81120276	      2.78936357	     -3.02823339	     36.81848948	     -8.86889744	      2.70386648	     42.52359067	     42.52359067	      6.71662646	    -16.78410368	      7.73662937	    -11.52425463	      4.42310273	      2.36951897	     27.06527882	    -23.78649029	     -0.93525188	     86.21434174	     44.79381966	      0.00000000	      0.00000000	     -1.10910508	    -10.50152348	     -8.73172195	     33.41530165	     46.90269831	      0.00000000	      0.00000000
     22.83821429	     -4.97627802	     -4.36437379	      7.44192990	      1.08938050	      0.93249744	      0.48081405	      9.61722122	      1.91556260	    -16.84758478	     13.68835812	     13.68835812	     11.03539943	      2.64904159	     -3.12150357	     36.65942276	     -8.48089962	      2.53368835	     38.06545509	     38.06545509	      6.89078487	    -15.51415809	      8.21285071	    -11.38666033	      4.49934627	      2.82137130	     28.04527589	    -23.57807861	     -0.83964542	     86.50856630	     44.78854813	      0.00000000	      0.00000000	     -0.99717858	    -10.25528972	     -8.74673229	     33.53160926	     46.90170016	      0.00000000	      0.00000000
     22.85214286	     -5.01165252	     -4.37924152	      7.59569757	      1.08850185	      0.93209065	      0.48035596	      9.26050477	      1.95399288	    -16.94127576	     13.58972461	     13.58972461	     11.31806144	      2.66168068	     -3.26411271	     36.16258621	     -8.16614616	      2.33192867	     33.62370747	     33.62370747	      6.92707678	    -13.95712594	      8.58025018	    -11.41359353	      4.58946461	      3.10108227	     29.05660773	    -23.08043462	     -0.59171249	     86.58569977	     44.78727044	      0.00000000	      0.00000000	     -0.98903218	    -10.13801409	     -8.78039694	     33.56575433	     46.89861300	      0.00000000	      0.00000000
     22.86607143	     -5.05965072	     -4.46288412	      7.72447876	      1.08771912	      0.93144615	      0.47975477	      8.94447857	      2.03771607	    -17.06916522	     13.54467373	     13.54467373	     11.62115945	      2.75662515	     -3.44177191	     35.66651586	     -7.93938223	      2.14700343	     29.48146257	     29.48146257	      6.90790931	    -12.06649760	      8.84998995	    -11.38332321	      4.76278927	      3.26523053	     30.20105243	    -22.47056245	     -0.20917842	     86.32637923	     44.79448468	      0.00000000	      0.00000000	     -1.00040482	     -9.96944746	     -8.79285621	     33.57770301	     46.88981957	      0.00000000	      0.00000000
     22.88000000	     -5.06111489	     -4.59440900	      7.78454678	      1.08718792	      0.93071930	      0.47915121	      8.57917491	      2.17579758	    -17.23412070	     13.51744731	     13.51744731	     11.94834456	      2.99933238	     -3.62246627	     35.12191121	     -7.87228586	      1.71471031	     25.78762310	     25.78762310	      6.75639422	     -9.84920606	      8.76945788	    -11.28376968	      4.94743011	      2.88085137	     32.00060623	    -21.31018713	      1.00444995	     84.63331391	     44.83740304	      0.00000000	      0.00000000	     -1.39277029	     -9.95516522	     -8.94822229	     33.54618504	     46.87182632	      0.00000000	      0.00000000
     22.89392857	     -5.06934362	     -4.67871307	      7.79885151	      1.08676153	      0.92992048	      0.47838492	      8.29250505	      2.25202937	    -17.16794301	     13.65352042	     13.65352042	     12.34989771	      2.91034349	     -3.81166883	     34.59081440	     -7.71239730	      1.43204365	     22.63767147	     22.63767147	      6.63496331	     -8.08912730	      9.32763768	    -11.23603463	      5.07528526	      3.21264293	     32.67339901	    -20.84697077	      1.32198112	     84.54064438	     44.83688387	      0.00000000	      0.00000000	     -1.29738788	     -9.81219195	     -8.95478019	     33.63423601	     46.86755246	      0.00000000	      0.00000000
     22.90785714	     -4.96252416	     -4.81517041	      7.75724052	      1.08659649	      0.92921360	      0.47762375	      7.86567870	      2.40252125	    -17.13732495	     13.77369326	     13.77369326	     12.77407576	      2.95522926	     -3.91080077	     34.07555117	     -7.75240953	      0.74540757	     20.31762690	     20.31762690	      6.62372026	     -5.96400061	      9.61456005	    -11.24077431	      5.24528222	      3.12007205	     33.80289495	    -19.88688096	      2.13175921	     83.40128269	     44.86388144	      0.00000000	      0.00000000	     -1.36552412	     -9.77494059	     -8.95527015	     33.49410749	     46.84650989	      0.00000000	      0.00000000
     22.92178571	     -4.95332761	     -4.89668921	      7.69717341	      1.08654107	      0.92842318	      0.47665957	      7.55978150	      2.46096796	    -17.00761741	     13.95015978	     13.95015978	     13.17932599	      2.89997221	     -4.03220896	     33.65029670	     -7.65351029	      0.27576539	     18.58080805	     18.58080805	      6.39034228	     -4.70939608	      9.87736142	    -11.11909215	      5.31257288	      3.34116973	     34.28354461	    -19.27444527	      2.55405617	     83.00018161	     44.86938182	      0.00000000	      0.00000000	     -1.29439630	     -9.71812300	     -8.93226319	     33.46989023	     46.83639537	      0.00000000	      0.00000000
     22.93571429	     -4.85665104	     -4.96585753	      7.58042044	      1.08673827	      0.92774360	      0.47564004	      7.15136840	      2.51583059	    -16.85804539	     14.14983726	     14.14983726	     13.63478276	      2.88325362	     -4.05587995	     33.20504447	     -7.64799491	     -0.48795355	     17.59952389	     17.59952389	      6.09444012	     -3.55040889	      9.67086678	    -11.05861271	      5.34720533	      3.36869556	     34.87518919	    -18.42750832	      3.19408816	     82.07821342	     44.88712180	      0.00000000	      0.00000000	     -1.24181734	     -9.73961614	     -8.86938648	     33.25890631	     46.81738552	      0.00000000	      0.00000000
     22.94964286	     -4.77309468	     -5.10741703	      7.43528728	      1.08719117	      0.92693162	      0.47456185	      6.75008838	      2.64886902	    -16.65850639	     14.35443708	     14.35443708	     14.21682237	      2.88402583	     -3.84226559	     32.83671493	     -7.75764864	     -1.32144544	     17.27951598	     17.27951598	      5.58417024	     -2.72126691	      8.41640167	    -10.87580907	      5.40649163	      3.05274318	     35.73583826	    -17.37472510	      4.25860318	     80.28446117	     44.92584283	      0.00000000	      0.00000000	     -1.29449631	     -9.78954406	     -8.77736383	     32.86634868	     46.78243479	      0.00000000	      0.00000000
     22.96357143	     -4.64664964	     -5.20810229	      7.28891466	      1.08784790	      0.92620204	      0.47312580	      6.28479849	      2.71071936	    -16.47665099	     14.57865784	     14.57865784	     14.79459768	      2.90271068	     -3.37986874	     32.37251370	     -7.74471389	     -1.75638985	     17.35640195	     17.35640195	      4.46911744	     -3.01820964	      6.28794844	    -10.70670935	      5.51569384	      2.80925687	     36.34530867	    -16.48240655	      5.46904680	     78.66768271	     44.95855248	      0.00000000	      0.00000000	     -1.46496553	     -9.84329639	     -8.84823568	     32.76149289	     46.75650052	      0.00000000	      0.00000000
     22.97750000	     -4.51260021	     -5.29129340	      7.12319111	      1.08873225	      0.92547196	      0.47153940	      5.74872946	      2.75087775	    -16.29034900	     14.70187487	     14.70187487	     15.25961061	      2.96989053	     -3.38122582	     31.91416783	     -7.73447152	     -2.12345394	     17.94305765	     17.94305765	      4.04488148	     -3.55333292	      5.75498733	    -10.58122844	      5.54420280	      2.97634400	     36.15800501	    -16.05007348	      5.80615063	     78.40092828	     44.95974511	      0.00000000	      0.00000000	     -1.34429884	     -9.87384138	     -8.88802186	     32.80552547	     46.75490475	      0.00000000	      0.00000000
